<?xml version="1.0" encoding="UTF-8"?>
<svg width="82px" height="70px" viewBox="0 0 82 70" version="1.1" xmlns="http://www.w3.org/2000/svg" xmlns:xlink="http://www.w3.org/1999/xlink">
    <!-- Generator: sketchtool 61.2 (101010) - https://sketch.com -->
    <title>05F14A8E-91E0-4241-BAA8-4D2CC2C9DBB8</title>
    <desc>Created with sketchtool.</desc>
    <g id="Page-1" stroke="none" stroke-width="1" fill="none" fill-rule="evenodd">
        <g id="HOME" transform="translate(-301.000000, -2573.000000)">
            <g id="SERVICES" transform="translate(0.000000, 2163.000000)">
                <g id="ADS" transform="translate(228.000000, 368.000000)">
                    <g id="WEB">
                        <g id="ICON-WEB" transform="translate(73.000000, 44.000000)">
                            <g id="Group-2" transform="translate(15.189873, 9.113924)" fill="#FFFFFF">
                                <path d="M52.6582278,8.62954382 C52.6582278,9.71435836 51.545664,10.5958629 50.1704376,10.5958629 L2.48591413,10.5958629 C1.11444,10.5958629 0,9.71435836 0,8.62954382 L0,1.9663191 C0,0.880020548 1.11444,0 2.48591413,0 L50.1704376,0 C51.545664,0 52.6582278,0.880020548 52.6582278,1.9663191 L52.6582278,8.62954382 Z" id="Path"></path>
                                <path d="M34.1315795,16.1680759 C34.1315795,17.4574862 33.4270524,18.5020495 32.5561951,18.5020495 L20.8643719,18.5020495 C19.9947027,18.5020495 19.2889875,17.4574862 19.2889875,16.1680759 L19.2889875,15.1305585 C19.2889875,13.8411482 19.9947027,12.7965849 20.8643719,12.7965849 L32.5561951,12.7965849 C33.4270524,12.7965849 34.1315795,13.8411482 34.1315795,15.1305585 L34.1315795,16.1680759 Z" id="Path"></path>
                                <path d="M34.1315795,23.5036733 C34.1315795,24.7930837 33.4270524,25.837647 32.5561951,25.837647 L20.8643719,25.837647 C19.9947027,25.837647 19.2889875,24.7930837 19.2889875,23.5036733 L19.2889875,22.466156 C19.2889875,21.1767456 19.9947027,20.1321823 20.8643719,20.1321823 L32.5561951,20.1321823 C33.4270524,20.1321823 34.1315795,21.1767456 34.1315795,22.466156 L34.1315795,23.5036733 Z" id="Path-Copy"></path>
                                <path d="M34.1315795,30.8392707 C34.1315795,32.1286811 33.4270524,33.1732444 32.5561951,33.1732444 L20.8643719,33.1732444 C19.9947027,33.1732444 19.2889875,32.1286811 19.2889875,30.8392707 L19.2889875,29.8017534 C19.2889875,28.512343 19.9947027,27.4677797 20.8643719,27.4677797 L32.5561951,27.4677797 C33.4270524,27.4677797 34.1315795,28.512343 34.1315795,29.8017534 L34.1315795,30.8392707 Z" id="Path-Copy-2"></path>
                                <path d="M18.0767051,29.7571167 C18.0767051,31.4776975 17.256355,32.871556 16.2454184,32.871556 L1.82990559,32.871556 C0.820350127,32.871556 0,31.4776975 0,29.7571167 L0,15.6093357 C0,13.888755 0.820350127,12.4948965 1.82990559,12.4948965 L16.2467995,12.4948965 C17.256355,12.4948965 18.0767051,13.888755 18.0767051,15.6093357 L18.0767051,29.7571167 Z" id="Path"></path>
                            </g>
                            <path d="M8.6981335,45.5933945 L52.9397304,45.5933945 L53.9397304,45.5933945 L53.9397304,51.6329114 L4.61109784,51.6329114 C3.19180671,51.6329114 2.03797468,50.4924946 2.03797468,49.0780785 L2.03797468,1.55366035 C2.03797468,0.140117389 3.19210524,-1 4.61109784,-1 L78.4256905,-1 C79.8446796,-1 81,0.140104554 81,1.55366035 L81,23.5479126 L79.2639322,21.6601168 C78.7996629,21.1552716 78.1455339,20.8610559 77.4374464,20.8610559 L74.9105916,20.8610559 L74.9105916,5.59434984 C74.9105916,5.29113505 74.6564111,5.03951691 74.3386548,5.03951691 L8.6981335,5.03951691 C8.38103877,5.03951691 8.12619671,5.29165851 8.12619671,5.59434984 L8.12619671,45.0385616 C8.12619671,45.3419027 8.38051439,45.5933945 8.6981335,45.5933945 Z" id="Fill-1" stroke="#FFFFFF" stroke-width="2"></path>
                            <path d="M3.27881679,55.6962025 C1.46954819,55.6962025 0,56.5339385 0,57.5645617 L0,61.9272181 C0,62.9597324 1.46954819,63.7974684 3.27881679,63.7974684 L56.7088608,63.7974684 L56.7088608,55.6962025 L3.27881679,55.6962025 Z" id="Fill-4" fill="#FFFFFF"></path>
                            <path d="M76.8808715,22.2911392 C79.1577532,22.2911392 81,24.1535978 81,26.4474081 L81,62.666516 C81,64.959489 79.1574054,66.8227848 76.8808715,66.8227848 L59.8268131,66.8227848 C57.5503857,66.8227848 55.7088608,64.9596005 55.7088608,62.666516 L55.7088608,26.4474081 C55.7088608,24.1534864 57.5500382,22.2911392 59.8268131,22.2911392 L76.8808715,22.2911392 Z" id="Path" stroke="#FFFFFF" stroke-width="2"></path>
                            <g id="Group-3" transform="translate(58.734177, 33.417722)" fill="#FFFFFF">
                                <path d="M18.7517938,7.23177149 C18.7517938,8.10001107 18.0303841,8.80456614 17.1425887,8.80456614 L1.6092051,8.80456614 C0.716551705,8.80456614 8.25968454e-14,8.10001107 8.25968454e-14,7.23177149 L8.25968454e-14,1.57279465 C8.25968454e-14,0.704555071 0.716551705,7.73975598e-14 1.6092051,7.73975598e-14 L17.1425887,7.73975598e-14 C18.0303841,7.73975598e-14 18.7517938,0.704555071 18.7517938,1.57279465 L18.7517938,7.23177149 Z" id="Path"></path>
                                <path d="M18.7505793,13.938092 C18.7505793,14.8063316 18.0291696,15.5108866 17.1401597,15.5108866 L13.3448646,15.5108866 C12.4546402,15.5108866 11.7356595,14.8063316 11.7356595,13.938092 L11.7356595,12.8907483 C11.7356595,12.0225087 12.4546402,11.3191398 13.3448646,11.3191398 L17.1401597,11.3191398 C18.0291696,11.3191398 18.7505793,12.0225087 18.7505793,12.8907483 L18.7505793,13.938092 Z" id="Path"></path>
                                <path d="M18.7505793,20.3312769 C18.7505793,21.2007026 18.0291696,21.9040715 17.1401597,21.9040715 L13.3448646,21.9040715 C12.4546402,21.9040715 11.7356595,21.2007026 11.7356595,20.3312769 L11.7356595,19.2839332 C11.7356595,18.4156936 12.4546402,17.7111386 13.3448646,17.7111386 L17.1401597,17.7111386 C18.0291696,17.7111386 18.7505793,18.4156936 18.7505793,19.2839332 L18.7505793,20.3312769 Z" id="Path"></path>
                                <path d="M10.9025164,30.3077292 L7.84441943,30.3077292 C6.95540952,30.3077292 6.23399984,29.6031742 6.23399984,28.7349346 C6.23399984,27.8643228 6.959053,27.163326 7.84441943,27.163326 L10.9025164,27.163326 C11.7927408,27.163326 12.5117215,27.8678811 12.5117215,28.7349346 C12.5117215,29.6067325 11.7890973,30.3077292 10.9025164,30.3077292 L10.9025164,30.3077292 Z" id="Path"></path>
                                <path d="M-1.02534015e-13,20.3300908 L-1.02534015e-13,12.8907483 C-1.02534015e-13,12.0236949 0.716551705,11.3191398 1.6092051,11.3191398 L7.44120728,11.3191398 C8.33143169,11.3191398 9.05162688,12.0236949 9.05162688,12.8907483 L9.05162688,20.3300908 C9.05162688,21.1995165 8.33143169,21.9028854 7.44120728,21.9028854 L1.6092051,21.9028854 C0.716551705,21.9028854 -1.02534015e-13,21.1995165 -1.02534015e-13,20.3300908 L-1.02534015e-13,20.3300908 Z" id="Path"></path>
                            </g>
                        </g>
                    </g>
                </g>
            </g>
        </g>
    </g>
</svg>