<?xml version="1.0" encoding="UTF-8"?>
<svg width="18px" height="18px" viewBox="0 0 18 18" version="1.1" xmlns="http://www.w3.org/2000/svg" xmlns:xlink="http://www.w3.org/1999/xlink">
    <!-- Generator: sketchtool 61.2 (101010) - https://sketch.com -->
    <title>018B410A-A7DB-4CFE-BA54-AC254768D8A7</title>
    <desc>Created with sketchtool.</desc>
    <g id="Page-1" stroke="none" stroke-width="1" fill="none" fill-rule="evenodd">
        <g id="HOME" transform="translate(-228.000000, -7022.000000)" fill="#EF4C4A">
            <g id="CONTACT" transform="translate(0.000000, 6072.000000)">
                <g id="Group-5" transform="translate(217.000000, 707.000000)">
                    <g id="PHONE" transform="translate(11.000000, 241.326316)">
                        <path d="M3.6,9.47368421 C5,12.2736842 7.4,14.5736842 10.2,16.0736842 L12.4,13.8736842 C12.7,13.5736842 13.1,13.4736842 13.4,13.6736842 C14.5,14.0736842 15.7,14.2736842 17,14.2736842 C17.6,14.2736842 18,14.6736842 18,15.2736842 L18,18.6736842 C18,19.2736842 17.6,19.6736842 17,19.6736842 C7.6,19.6736842 0,12.0736842 0,2.67368421 C0,2.07368421 0.4,1.67368421 1,1.67368421 L4.5,1.67368421 C5.1,1.67368421 5.5,2.07368421 5.5,2.67368421 C5.5,3.87368421 5.7,5.07368421 6.1,6.27368421 C6.2,6.57368421 6.1,6.97368421 5.9,7.27368421 L3.6,9.47368421 L3.6,9.47368421 Z" id="ICON_PHONE"></path>
                    </g>
                </g>
            </g>
        </g>
    </g>
</svg>