<?xml version="1.0" encoding="UTF-8"?>
<svg width="97px" height="96px" viewBox="0 0 97 96" version="1.1" xmlns="http://www.w3.org/2000/svg" xmlns:xlink="http://www.w3.org/1999/xlink">
    <!-- Generator: sketchtool 61.2 (101010) - https://sketch.com -->
    <title>F37C2CCB-E9D4-4171-9889-9ABF1C89846A</title>
    <desc>Created with sketchtool.</desc>
    <defs>
        <polygon id="path-1" points="0.447875365 0.285817925 50.9342174 0.285817925 50.9342174 9.70754717 0.447875365 9.70754717"></polygon>
    </defs>
    <g id="Page-1" stroke="none" stroke-width="1" fill="none" fill-rule="evenodd">
        <g id="HOME" transform="translate(-1047.000000, -2567.000000)">
            <g id="SERVICES" transform="translate(0.000000, 2163.000000)">
                <g id="ADS" transform="translate(228.000000, 368.000000)">
                    <g transform="translate(747.000000, 0.000000)" id="ICON-ADS">
                        <g transform="translate(73.000000, 37.000000)">
                            <polygon id="Stroke-1" stroke="#FFFFFF" stroke-width="2" stroke-linecap="round" stroke-linejoin="round" points="7 71 89 71 89 33 7 33"></polygon>
                            <g id="Group-18">
                                <g id="Group-4" transform="translate(0.000000, 26.198113)" stroke="#FFFFFF" stroke-linejoin="round" stroke-width="2">
                                    <polygon id="Rectangle" points="0 0 34 0 70 0 95 0 95 51 0 51"></polygon>
                                </g>
                                <g id="Group-7" transform="translate(22.217380, 84.830189)">
                                    <mask id="mask-2" fill="white">
                                        <use xlink:href="#path-1"></use>
                                    </mask>
                                    <g id="Clip-6"></g>
                                    <path d="M3.87261467,6.56660094 L47.5066915,6.56660094 C46.8560189,4.73880849 45.1018501,3.42551604 43.0439413,3.42551604 L8.33675817,3.42551604 C6.27884932,3.42551604 4.52468057,4.73880849 3.87261467,6.56660094 M49.3569981,9.70768585 L2.02648791,9.70768585 C1.1556734,9.70768585 0.447875365,9.00596887 0.447875365,8.13645 C0.447875365,3.80827075 3.98686553,0.285817925 8.33675817,0.285817925 L43.0453346,0.285817925 C47.3952272,0.285817925 50.9342174,3.80827075 50.9342174,8.13645 C50.9342174,9.00596887 50.2278126,9.70768585 49.3569981,9.70768585" id="Fill-5" fill="#FFFFFF" mask="url(#mask-2)"></path>
                                </g>
                                <polygon id="Fill-8" fill="#FFFFFF" points="38.4416274 86.685717 41.5974592 86.685717 41.5974592 77.2638491 38.4416274 77.2638491"></polygon>
                                <polygon id="Fill-10" fill="#FFFFFF" points="54.219393 86.685717 57.3752248 86.685717 57.3752248 77.2638491 54.219393 77.2638491"></polygon>
                                <polygon id="Path" stroke="#FFFFFF" stroke-width="2" stroke-linejoin="round" points="68.2871889 28.0973415 35.2871889 19.5325113 35.2871889 9.37009623 68.2871889 0.805266038"></polygon>
                                <polygon id="Path" stroke="#FFFFFF" stroke-width="2" stroke-linejoin="round" points="40.2871889 31.7251906 35.2871889 31.7251906 35.2871889 19.7251906 40.2871889 20.9719317"></polygon>
                                <polygon id="Path" stroke="#FFFFFF" stroke-width="2" stroke-linejoin="round" points="28.9755254 19.1622377 33.9755254 19.1622377 33.9755254 9.74036981 28.9755254 9.74036981"></polygon>
                                <path d="M73.1520151,11.3102189 L73.1520151,11.3102189 C73.1520151,12.1769642 73.8584199,12.8800679 74.7292344,12.8800679 L81.0395046,12.8800679 C81.9117124,12.8800679 82.6181172,12.1769642 82.6181172,11.3102189 L82.6181172,11.3102189 C82.6181172,10.4434736 81.9117124,9.74036981 81.0395046,9.74036981 L74.7292344,9.74036981 C73.8584199,9.74036981 73.1520151,10.4434736 73.1520151,11.3102189" id="Fill-12" fill="#FFFFFF"></path>
                                <path d="M81.0369967,1.88779623 L81.0356034,1.88779623 C80.712357,1.08068302 79.7941702,0.689607547 78.984661,1.01273019 L74.0272882,2.98613585 C73.2191723,3.30925849 72.8234742,4.22315472 73.1481139,5.02888113 L73.1495072,5.02888113 C73.4713602,5.83460755 74.389547,6.22568302 75.2004495,5.90394717 L80.1578223,3.92915472 C80.9659382,3.60741887 81.3588497,2.69352264 81.0369967,1.88779623" id="Fill-13" fill="#FFFFFF"></path>
                                <path d="M74.0310501,19.6309736 L78.9898163,21.605766 C79.7993254,21.9275019 80.7175123,21.5364264 81.0407586,20.7307 L81.0407586,20.7293132 C81.3653982,19.9235868 80.9710934,19.0096906 80.1615843,18.6879547 L75.2042114,16.7131623 C74.3947023,16.3914264 73.4765154,16.7825019 73.1532691,17.5882283 L73.1518758,17.5896151 C72.8286294,18.3953415 73.221541,19.3092377 74.0310501,19.6309736" id="Fill-14" fill="#FFFFFF"></path>
                                <polygon id="Fill-15" fill="#FFFFFF" points="52.6421738 58.6045566 55.7980056 58.6045566 55.7980056 55.4634717 52.6421738 55.4634717"></polygon>
                                <polygon id="Fill-16" fill="#FFFFFF" points="40.02024 53.7091792 43.1760718 53.7091792 43.1760718 46.0416038 40.02024 46.0416038"></polygon>
                                <path d="M58.9523047,60.1744057 C58.9523047,61.0425377 58.2445067,61.7442547 57.3750855,61.7442547 L51.0634219,61.7442547 C50.1940007,61.7442547 49.4862027,61.0425377 49.4862027,60.1744057 L49.4862027,53.8922358 C49.4862027,53.0241038 50.1940007,52.3223868 51.0634219,52.3223868 L55.7964729,52.3223868 L55.7964729,42.9005189 L58.9523047,42.9005189 L58.9523047,60.1744057 Z M46.3303709,61.7442547 L43.1759324,61.7442547 L43.1759324,56.8502642 L40.0201006,56.8502642 L40.0201006,61.7442547 L36.8642689,61.7442547 L36.8642689,44.4703679 C36.8642689,43.6022358 37.5720669,42.9005189 38.4414881,42.9005189 L44.7531517,42.9005189 C45.6239662,42.9005189 46.3303709,43.6022358 46.3303709,44.4703679 L46.3303709,61.7442547 Z M63.6853558,38.0065283 L32.1312178,38.0065283 C31.2617966,38.0065283 30.5539986,38.65 30.5539986,39.4487925 L30.5539986,65.4178679 C30.5539986,66.2166604 31.2617966,66.8615189 32.1312178,66.8615189 L63.6853558,66.8615189 C64.554777,66.8615189 65.262575,66.2166604 65.262575,65.4178679 L65.262575,39.4487925 C65.262575,38.65 64.554777,38.0065283 63.6853558,38.0065283 L63.6853558,38.0065283 Z" id="Fill-17" fill="#FFFFFF"></path>
                            </g>
                        </g>
                    </g>
                </g>
            </g>
        </g>
    </g>
</svg>