<?xml version="1.0" encoding="UTF-8"?>
<svg width="174px" height="33px" viewBox="0 0 174 33" version="1.1" xmlns="http://www.w3.org/2000/svg" xmlns:xlink="http://www.w3.org/1999/xlink">
    <!-- Generator: sketchtool 61.2 (101010) - https://sketch.com -->
    <title>FF29990A-030A-4ABA-978B-9CCA0BDFB8EE</title>
    <desc>Created with sketchtool.</desc>
    <g id="Page-1" stroke="none" stroke-width="1" fill="none" fill-rule="evenodd">
        <g id="HOME" transform="translate(-475.000000, -3428.000000)" fill="#114437">
            <g id="CLIENT" transform="translate(228.000000, 3013.000000)">
                <g id="INNISFREE" transform="translate(247.000000, 414.889714)">
                    <path d="M160.338944,20.7773056 C161.977024,20.633585 163.350593,20.7261835 164.585293,20.350002 C166.36602,19.8059857 168.15147,19.0960637 169.733813,18.12185 C170.902386,17.4032469 171.174454,15.9891903 170.585917,14.6175747 C170.043669,13.359778 168.986569,12.8900334 167.714082,12.9392264 C167.10854,12.9614115 166.479382,13.0597974 165.915406,13.2729669 C162.677979,14.4970037 161.412104,17.2865342 160.338944,20.7773056 L160.338944,20.7773056 Z M174,17.1447427 C172.325078,20.2863405 169.470247,21.5711451 166.241322,22.1788229 C164.576791,22.4923075 162.881085,22.6726817 161.191048,22.7865007 C160.330442,22.8453393 160.05554,23.1482137 160.004527,24.0037855 C159.697505,29.1603658 163.932517,32.0087349 168.796688,29.8673941 C169.637456,29.4989291 170.428155,29.014716 171.239637,28.5835541 C171.368114,28.6703652 171.495646,28.7552472 171.621289,28.8410938 C171.207518,29.5105039 170.940173,30.412375 170.349746,30.8010959 C169.067812,31.6383408 167.687631,32.5122394 166.232819,32.8450154 C160.629907,34.1278907 156.324043,30.6477295 156.018911,24.7831564 C155.675046,18.2279525 160.054595,12.5312142 166.388692,11.2907798 C169.669575,10.6483775 172.101188,11.712296 174,14.6185392 L174,17.1447427 Z" id="Fill-2"></path>
                    <path d="M42.9119174,30.9889572 L39,30.9889572 C39.5995889,27.7309555 40.1718809,24.6094778 40.7517031,21.4889289 C41.1865698,19.1513034 41.7108571,16.8257514 42.0299476,14.4741949 C42.1306634,13.7247059 41.836046,12.8414791 41.4821285,12.1365694 C41.089619,11.3527172 41.1668031,10.9988692 42.0431253,10.9245704 C43.5171539,10.8010487 44.9921237,10.7109614 46.6242856,10.5957983 C46.3927332,11.9898293 46.1913014,13.2055431 45.990811,14.4203283 C46.0839967,14.4760523 46.1781237,14.5308477 46.2694268,14.5865718 C46.5960475,14.2429399 46.9217268,13.8974506 47.2474062,13.5547474 C49.1440649,11.5644687 51.394641,10.2605251 54.2212743,10.1202861 C57.5674885,9.95682878 59.3559012,11.805011 58.9408012,15.0973759 C58.696071,17.051434 58.301679,18.9906322 57.945879,20.9307592 C57.4987758,23.3696169 56.9697822,25.7936147 56.6045695,28.2445458 C56.522679,28.7943569 57.0507314,29.4091793 57.1599187,30.0175006 C57.2163949,30.3444152 56.9895489,30.7242678 56.8653012,31.0716146 C56.854006,31.108764 56.6732822,31.0920468 56.5716251,31.0920468 C51.3146331,31.091118 52.0187029,31.6047084 52.8564331,27.2452272 C53.4889664,23.9658646 54.0377267,20.6716422 54.6231965,17.383921 C54.6514346,17.233466 54.6796727,17.0839397 54.6928505,16.9325559 C54.8039203,15.4985894 54.9469933,13.9828942 53.4748473,13.121957 C51.9641093,12.2387302 50.5474982,12.9547847 49.3483204,13.8612299 C46.5226284,15.9945338 45.0438935,18.9154047 44.4819554,22.3545097 C44.0188507,25.1992244 43.4540888,28.0272219 42.9119174,30.9889572" id="Fill-4"></path>
                    <path d="M21.0491117,14.3716551 C22.8118632,13.172832 24.5395681,11.9406825 26.3335774,10.812215 C26.8706436,10.4752484 27.592415,10.3734179 28.247882,10.2604786 C32.3009792,9.56062506 34.4359829,11.3185904 33.9254385,15.2835013 C33.3646922,19.6307396 32.4695819,23.9363199 31.681506,28.253009 C31.5441611,28.9945204 31.3433533,29.6379043 32.2990848,29.9896825 C32.4553738,30.0461522 32.6400791,30.4793948 32.5728275,30.5719681 C32.4184328,30.7821093 32.1200627,31.0061364 31.873789,31.0153938 C30.6878863,31.0570517 29.4972476,31.0644576 28.3122921,31.018171 C27.2930977,30.9792902 27.3972905,30.2405559 27.5147441,29.576806 C28.0707544,26.4478313 28.6864387,23.3290396 29.1950886,20.1935847 C29.4603065,18.5568903 29.7018442,16.8914981 29.6819529,15.2409176 C29.6592199,13.2579993 28.2118882,12.325787 26.2890587,12.9599136 C23.0761339,14.0198769 21.2271865,16.5128736 20.3178682,19.4594791 C19.3365621,22.6273346 18.8184401,25.9451587 18.2946348,29.2268792 C18.061622,30.6876846 17.5359223,31.2894105 16.030811,31.0644576 C15.4425957,30.976513 14.8307002,31.0514973 14,31.0514973 C14.5219108,28.1308123 14.9917253,25.4619265 15.480484,22.7976693 C15.998606,19.9695575 16.5943989,17.1525546 17.0215891,14.3114825 C17.1248346,13.6199606 16.63134,12.8608602 16.5470386,12.118423 C16.5053615,11.7462787 16.7251135,11.0205047 16.8965579,10.9973614 C18.4149301,10.8048091 19.9465632,10.7353792 21.614594,10.6196627 C21.3938949,12.0767651 21.2091896,13.3107661 21.0491117,14.3716551" id="Fill-6"></path>
                    <path d="M102.30817,13.5099538 L98,13.5099538 C98.142326,12.562785 98.2518795,11.8204622 98.3483241,11.1727587 C98.514059,11.0615566 98.556195,11.0108329 98.60114,11.0088819 C99.9663458,10.9181644 101.691112,11.3239546 102.599376,10.6079691 C103.509514,9.88905726 103.542286,8.02203248 104.08069,6.71101822 C105.83542,2.42681089 109.233453,0.0174320009 113.322515,0.113026791 C113.875901,0.124732275 114.44146,0.219351608 114.977991,0.367621079 C116.96681,0.915827936 117.612895,2.7331044 116.354433,4.42552237 C116.204617,4.62939289 115.184926,4.52111716 114.987355,4.23823462 C113.037864,1.46013296 110.258761,1.5206113 108.721266,4.62841743 C107.801766,6.4798349 107.321415,8.57023934 106.544241,10.8450052 L112.766321,10.8450052 L113.052845,11.3619974 C112.673621,11.6926773 112.342152,12.2067432 111.912365,12.3169698 C110.627685,12.6476498 109.310234,12.9763788 107.995591,13.0134462 C106.429069,13.0583172 106.106026,13.9781732 105.882238,15.3077211 C105.035773,20.3869259 104.061963,25.4436952 103.266061,30.5307037 C103.059127,31.8651289 102.531023,32.2114162 101.376497,32.0865577 C100.683594,32.0114475 99.9757093,32.0729013 99.0571449,32.0729013 C100.159235,25.7831543 101.21638,19.7480016 102.30817,13.5099538" id="Fill-8"></path>
                    <path d="M138.406679,20.1572507 C141.529319,20.2819828 144.256343,19.8846879 146.793546,18.5283416 C146.883758,18.4812206 146.968331,18.4248601 147.052905,18.3694236 C148.607177,17.3521639 149.20389,15.7934744 148.586503,14.3641367 C148.003886,13.0161059 146.218447,12.3693468 144.341856,12.9403427 C140.853671,14.0028756 139.498616,16.7987229 138.406679,20.1572507 M149.619239,28.0911373 C149.162543,28.7332767 148.823309,29.5140074 148.231295,29.9907612 C146.65353,31.2584091 144.808889,31.9809315 142.741538,32.0936523 C137.769559,32.3652912 134.470254,29.2950332 134.034231,23.9786732 C133.491082,17.3475442 139.492978,10.9954456 146.246638,11.1118623 C147.148755,11.1294172 148.08846,11.3123576 148.935134,11.6172583 C152.257931,12.8156106 153.113063,16.6887738 150.334355,18.8415578 C148.706786,20.103662 146.609364,20.9037955 144.602154,21.529304 C142.924781,22.0522549 141.072622,22.1039956 139.289062,22.2037813 C138.321166,22.2582939 138.098455,22.6287945 138.058988,23.4778968 C137.832519,28.3784831 141.965342,31.0301956 146.755018,29.0067634 C147.590416,28.6538177 148.379768,28.1927709 149.192613,27.7816168 C149.333569,27.8850983 149.475464,27.9895037 149.619239,28.0911373" id="Fill-10"></path>
                    <path d="M78.1876861,27.3175225 C78.6290102,27.6996755 79.2103606,28.0042486 79.4865504,28.4812216 C80.3035312,29.8987316 81.2875779,31.0336974 83.0007268,31.3631727 C84.7544351,31.6983947 86.2869984,31.1668284 87.1812351,29.8565894 C88.0358782,28.6086059 88.1218253,26.7189118 87.0325175,25.4584773 C85.7075794,23.9241185 84.0417496,22.6799661 82.6955661,21.1609317 C81.7916724,20.1437725 80.825974,18.9484667 80.5295046,17.6832433 C79.9887135,15.3951139 81.2161162,13.6567486 83.2334601,12.5265717 C86.0388139,10.9510285 89.0469644,10.811193 92.1082282,11.5151591 C92.496439,11.6042324 92.9686655,12.3101141 92.9947393,12.7535649 C93.0381958,13.4546576 92.8054625,14.2026815 92.5534152,14.8817454 C92.4394628,15.1920652 92.0164869,15.5541049 91.7074634,15.5799649 C91.4322394,15.6039093 91.0073321,15.2591096 90.8393006,14.9689031 C89.7808951,13.1644512 88.8683102,12.5658406 86.8567604,13.1175201 C85.8746452,13.3876133 84.6578652,14.2189637 84.3527045,15.0800053 C84.082309,15.8376069 84.6945618,17.1928614 85.3386826,17.9159831 C86.3690828,19.07202 87.8041105,19.8593127 88.9629486,20.914783 C91.1367357,22.8973815 92.5341012,25.2573441 91.542329,28.2896662 C90.5138602,31.4407526 88.0368439,33.0258736 84.853902,33.1063269 C82.5980306,33.1628358 80.3199481,32.6015784 78.063111,32.2462431 C77.1061039,32.0949144 76.8019089,31.4924726 77.1234864,30.5203289 C77.4160931,29.6353429 77.5541879,28.698637 77.7598817,27.7849177 C77.9018393,27.6288 78.0457284,27.4726824 78.1876861,27.3175225" id="Fill-12"></path>
                    <path d="M123.375334,10.3673273 C123.131231,11.6701292 122.933871,12.714625 122.661722,14.1583211 C123.610089,13.3580419 124.163735,12.689264 124.899161,12.3069711 C126.436491,11.5095098 128.027836,10.7543168 129.68566,10.1963756 C130.537424,9.91176932 131.211564,10.3382092 130.938376,11.3958551 C130.684925,12.3830539 130.562354,13.3993709 130.356684,14.5490678 C129.514268,14.3837519 128.768455,14.2118609 128.014333,14.0963277 C124.890851,13.6191659 122.70431,14.9811434 121.951226,18.1221452 C121.091152,21.7205836 120.421167,25.3565937 119.707555,28.9803931 C119.284789,31.118228 119.318029,31.127621 116.871804,31.1069565 C116.319196,31.1013207 115.768665,31.0552953 115,31.0177235 C115.606622,27.9931942 116.190392,25.0945305 116.763775,22.1949274 C117.298724,19.4747297 117.883533,16.7629856 118.307338,14.0286984 C118.41225,13.364617 118.152566,12.520191 117.730839,11.9575534 C117.131488,11.1563349 117.340274,10.8116137 118.243975,10.7195628 C119.862327,10.5551863 121.495221,10.4903749 123.375334,10.3673273" id="Fill-14"></path>
                    <path d="M73,10.1102863 C72.1585483,14.516654 71.3636192,18.6823457 70.5676788,22.8480375 C70.2551685,24.4775944 69.9487264,26.1071514 69.6301479,27.7367083 C69.4572053,28.6204552 68.9110708,29.5898181 70.3037138,30.0683161 C70.1206576,30.4107799 69.961874,31.0319712 69.7535339,31.0481431 C68.4943904,31.1375642 67.2231107,31.1128307 65.9568878,31.0823895 C64.8949596,31.0567047 64.9293458,30.4050722 65.0739703,29.6573595 C65.7070818,26.3991969 66.3088411,23.1343753 66.9368958,19.8762126 C67.3100877,17.9412921 67.813745,16.0234948 68.0574828,14.0752562 C68.1545734,13.3047126 67.6286661,12.4827995 67.5346096,11.669448 C67.4880871,11.2822736 67.7368817,10.5298045 67.9320742,10.5069736 C69.5482277,10.3033979 71.1835971,10.2330025 73,10.1102863" id="Fill-16"></path>
                    <path d="M8,10.1102863 C7.24587343,14.09627 6.54202197,17.8503004 5.82308797,21.5995777 C5.38468906,23.8896408 4.875905,26.1701976 4.51895176,28.469767 C4.44957211,28.9260685 4.93020211,29.4622228 5.17152261,29.9555988 C5.27609483,30.172342 5.57171245,30.4546785 5.50736031,30.5611489 C5.37362853,30.7835959 5.06292839,31.0450186 4.81758588,31.0535742 C3.50540565,31.0954019 2.17814288,31.1686002 0.881045185,31.0279073 C-0.436162557,30.8862637 0.081671021,29.8234615 0.197303762,29.1713306 C0.82574257,25.6549572 1.54568207,22.1499914 2.23244,18.641223 C2.53006862,17.1154649 2.92824745,15.5963612 3.06700673,14.0572942 C3.13538088,13.2787298 2.65374537,12.467844 2.56425569,11.6569583 C2.5210191,11.2719539 2.76937811,10.5257108 2.96142901,10.5009945 C4.57123786,10.3013626 6.19713475,10.2310161 8,10.1102863" id="Fill-18"></path>
                    <path d="M74,4.5850964 C74.0041311,6.0425044 72.877379,7.15380406 71.4389059,7.10897678 C70.0729261,7.06519199 69.0072754,5.96744476 69,4.59656385 C68.9938124,3.12977339 70.0977809,2.07372596 71.5994267,2.11125578 C73.0513628,2.14774311 73.9958461,3.12039094 74,4.5850964" id="Fill-20"></path>
                    <path d="M8.99859114,4.67581832 C8.95644897,6.04737175 7.86383597,7.12166836 6.51939778,7.11019529 C5.0845081,7.09976523 3.95900365,5.93577007 4.00114583,4.50893729 C4.043288,3.06124439 5.19654461,2.02971104 6.67563219,2.11523757 C8.08893686,2.19763507 9.04176117,3.24794253 8.99859114,4.67581832" id="Fill-22"></path>
                </g>
            </g>
        </g>
    </g>
</svg>