<?xml version="1.0" encoding="UTF-8"?>
<svg width="173px" height="54px" viewBox="0 0 173 54" version="1.1" xmlns="http://www.w3.org/2000/svg" xmlns:xlink="http://www.w3.org/1999/xlink">
    <!-- Generator: sketchtool 61.2 (101010) - https://sketch.com -->
    <title>E9666BF3-D699-4DF4-8339-E154704CA66A</title>
    <desc>Created with sketchtool.</desc>
    <g id="Page-1" stroke="none" stroke-width="1" fill="none" fill-rule="evenodd">
        <g id="HOME" transform="translate(-228.000000, -3558.000000)">
            <g id="CLIENT" transform="translate(228.000000, 3013.000000)">
                <g id="NUCLEUS" transform="translate(0.000000, 545.065823)">
                    <path d="M169.250101,19.5817184 L169.250101,17.3950854 C168.377469,17.6419328 167.824264,17.8197386 167.577388,17.9294486 C167.126965,18.1053628 166.805522,18.298301 166.601975,18.5016428 C166.414551,18.706876 166.310762,18.926296 166.310762,19.158011 C166.310762,19.4578218 166.441757,19.7046692 166.689641,19.9099025 C166.921403,20.1132443 167.213624,20.2097134 167.533051,20.2097134 C167.969367,20.2097134 168.537686,19.9912392 169.250101,19.5817184 L169.250101,19.5817184 Z M169.250101,19.9912392 C168.45002,20.4414284 167.940145,20.7015167 167.736598,20.7837991 C167.431278,20.8793225 167.110842,20.9341774 166.762193,20.9341774 C166.223096,20.9341774 165.772672,20.7960942 165.423015,20.5246566 C165.073358,20.2513275 164.901048,19.8957159 164.901048,19.4578218 C164.901048,19.1712518 164.988714,18.9385911 165.161024,18.7343035 C165.3948,18.4477335 165.78678,18.1753502 166.370214,17.9294486 C166.95264,17.6826011 167.911931,17.3686037 169.250101,17.0129921 L169.250101,16.7822228 C169.250101,16.2213779 169.119105,15.825098 168.872229,15.6075696 C168.624345,15.4023363 168.274688,15.2935721 167.79605,15.2935721 C167.446393,15.2935721 167.155179,15.361668 166.95264,15.5111005 C166.732971,15.648238 166.631197,15.8128029 166.631197,15.9887172 L166.645304,16.3585154 C166.645304,16.549562 166.572753,16.6989946 166.441757,16.8087045 C166.310762,16.9051736 166.136437,16.9600286 165.917775,16.9600286 C165.701129,16.9600286 165.526804,16.9051736 165.3948,16.7954637 C165.263805,16.6848079 165.192261,16.5353754 165.192261,16.3585154 C165.192261,15.9887172 165.452237,15.660533 165.949012,15.361668 C166.441757,15.0609114 167.155179,14.9114788 168.057033,14.9114788 C168.755341,14.9114788 169.322652,14.9918697 169.759976,15.1706213 C170.094518,15.2935721 170.341395,15.4978597 170.501612,15.7711888 C170.603386,15.9480488 170.660822,16.317847 170.660822,16.8777462 L170.660822,18.8156402 C170.660822,19.3632443 170.675937,19.6904826 170.705159,19.8143792 C170.735389,19.9363842 170.779726,20.0186667 170.85127,20.0735217 C170.908706,20.1132443 170.983273,20.1274309 171.070939,20.1274309 C171.170697,20.1274309 171.244256,20.1132443 171.317815,20.0858168 C171.432688,20.0328533 171.665457,19.8815293 172,19.6223868 L172,19.9779984 C171.361145,20.6059933 170.748489,20.9199908 170.16707,20.9199908 C169.891979,20.9199908 169.67231,20.851895 169.497985,20.7147575 C169.337767,20.565325 169.250101,20.3326642 169.250101,19.9912392 L169.250101,19.9912392 Z M153.593108,16.1390955 C154.160419,15.7172796 154.494962,15.4694864 154.597743,15.416523 C154.844619,15.251958 155.121725,15.1290072 155.413946,15.0476705 C155.705159,14.9512014 155.995365,14.9114788 156.28557,14.9114788 C156.780331,14.9114788 157.187424,15.020243 157.537082,15.2254763 C157.887747,15.428818 158.133615,15.7305204 158.234381,16.1390955 C158.831923,15.6340513 159.325675,15.3058672 159.735792,15.1431938 C160.126763,14.9918697 160.548972,14.9114788 160.985288,14.9114788 C161.392382,14.9114788 161.756147,14.9918697 162.076582,15.1431938 C162.397017,15.3058672 162.659008,15.5517689 162.847441,15.9073805 C162.965337,16.1532821 163.03688,16.5353754 163.03688,17.0546062 L163.03688,19.5259177 C163.03688,19.8815293 163.066102,20.1274309 163.140669,20.2645684 C163.197098,20.3468508 163.299879,20.4291333 163.443974,20.4972291 C163.604192,20.565325 163.853083,20.5918067 164.187626,20.5918067 L164.187626,20.8235217 L160.359532,20.8235217 L160.359532,20.5918067 L160.51975,20.5918067 C160.854293,20.5918067 161.117291,20.5378975 161.304716,20.4414284 C161.436719,20.3875192 161.523378,20.2768634 161.58283,20.1274309 C161.611044,20.0593351 161.627166,19.8550475 161.627166,19.5259177 L161.627166,17.0546062 C161.627166,16.5902304 161.5395,16.2620463 161.392382,16.0719454 C161.161628,15.7986163 160.810963,15.660533 160.316203,15.660533 C160.025998,15.660533 159.719669,15.7172796 159.413341,15.8392846 C159.110036,15.9480488 158.731157,16.1532821 158.308948,16.4530929 L158.293833,16.5230803 L158.322048,16.7822228 L158.322048,19.5259177 C158.322048,19.9099025 158.353285,20.1539126 158.409714,20.2513275 C158.468158,20.3468508 158.584039,20.4291333 158.744256,20.4972291 C158.904474,20.565325 159.182588,20.5918067 159.573559,20.5918067 L159.573559,20.8235217 L155.6447,20.8235217 L155.6447,20.5918067 C156.083031,20.5918067 156.374244,20.5501926 156.532447,20.4820967 C156.692664,20.40076 156.808545,20.2919958 156.866989,20.1416175 C156.896211,20.0735217 156.911326,19.8682884 156.911326,19.5259177 L156.911326,17.0546062 C156.911326,16.5902304 156.808545,16.2497512 156.63422,16.0445179 C156.374244,15.7711888 156.039702,15.6340513 155.586256,15.6340513 C155.28295,15.6340513 154.975615,15.7021472 154.670294,15.825098 C154.203748,16.0038496 153.840992,16.2213779 153.593108,16.4530929 L153.593108,19.5259177 C153.593108,19.8957159 153.62233,20.1416175 153.694881,20.2513275 C153.769448,20.3591459 153.869206,20.455615 154.015316,20.5095242 C154.14732,20.565325 154.42241,20.5918067 154.844619,20.5918067 L154.844619,20.8235217 L150.989319,20.8235217 L150.989319,20.5918067 C151.352076,20.5918067 151.59996,20.565325 151.745062,20.5095242 C151.877066,20.455615 151.992946,20.3591459 152.065498,20.2361951 C152.140064,20.1132443 152.183394,19.8815293 152.183394,19.5259177 L152.183394,17.3269895 C152.183394,16.6989946 152.153164,16.3027146 152.095728,16.1126137 C152.065498,15.9754763 151.992946,15.8808987 151.90528,15.825098 C151.832729,15.7711888 151.717856,15.7579479 151.570738,15.7579479 C151.41052,15.7579479 151.22108,15.7844296 150.989319,15.8392846 L150.873438,15.6217562 L153.231358,14.9114788 L153.593108,14.9114788 L153.593108,16.1390955 Z M147.743652,14.9114788 L147.743652,16.2081371 C148.384522,15.3465356 149.053607,14.9114788 149.738815,14.9114788 C150.04212,14.9114788 150.305119,14.9795747 150.508666,15.1148206 C150.71322,15.2661446 150.813986,15.416523 150.813986,15.6075696 C150.813986,15.7711888 150.741435,15.9073805 150.595324,16.0161446 C150.450222,16.1390955 150.275897,16.1948962 150.07235,16.1948962 C149.869811,16.1948962 149.650141,16.1126137 149.404272,15.9754763 C149.156389,15.825098 148.982064,15.7579479 148.866183,15.7579479 C148.762394,15.7579479 148.647521,15.7986163 148.530633,15.8808987 C148.281741,16.056813 148.005643,16.3301421 147.743652,16.7264221 L147.743652,19.4720085 C147.743652,19.7869517 147.802096,20.0328533 147.903869,20.1955267 C147.978436,20.3184776 148.109432,20.40076 148.296856,20.4820967 C148.487304,20.5501926 148.747279,20.5918067 149.096937,20.5918067 L149.096937,20.8235217 L145.110641,20.8235217 L145.110641,20.5918067 C145.504635,20.5918067 145.795848,20.5501926 145.983273,20.455615 C146.130391,20.3875192 146.230149,20.2768634 146.288593,20.1274309 C146.317815,20.0593351 146.33293,19.8550475 146.33293,19.5259177 L146.33293,17.3146945 C146.33293,16.6460312 146.304716,16.2497512 146.274486,16.1126137 C146.230149,15.9887172 146.17372,15.8941396 146.070939,15.8392846 C145.969166,15.7844296 145.839178,15.7579479 145.69206,15.7579479 C145.517735,15.7579479 145.329303,15.7844296 145.095526,15.8392846 L145.022975,15.6217562 L147.379887,14.9114788 L147.743652,14.9114788 Z M142.099758,19.5817184 L142.099758,17.3950854 C141.239218,17.6419328 140.686014,17.8197386 140.426038,17.9294486 C139.973599,18.1053628 139.654172,18.298301 139.463724,18.5016428 C139.260177,18.706876 139.173519,18.926296 139.173519,19.158011 C139.173519,19.4578218 139.291415,19.7046692 139.538291,19.9099025 C139.785167,20.1132443 140.075373,20.2097134 140.395808,20.2097134 C140.817009,20.2097134 141.399436,19.9912392 142.099758,19.5817184 L142.099758,19.5817184 Z M142.099758,19.9912392 C141.29867,20.4414284 140.804917,20.7015167 140.599355,20.7837991 C140.295042,20.8793225 139.9605,20.9341774 139.609835,20.9341774 C139.072753,20.9341774 138.634422,20.7960942 138.285772,20.5246566 C137.937122,20.2513275 137.76179,19.8957159 137.76179,19.4578218 C137.76179,19.1712518 137.834341,18.9385911 138.009674,18.7343035 C138.24345,18.4477335 138.649536,18.1753502 139.231963,17.9294486 C139.798267,17.6826011 140.76058,17.3686037 142.099758,17.0129921 L142.099758,16.7822228 C142.099758,16.2213779 141.980854,15.825098 141.733978,15.6075696 C141.487102,15.4023363 141.123337,15.2935721 140.657799,15.2935721 C140.308142,15.2935721 140.016929,15.361668 139.813382,15.5111005 C139.59472,15.648238 139.478839,15.8128029 139.478839,15.9887172 L139.508061,16.3585154 C139.508061,16.549562 139.43551,16.6989946 139.304514,16.8087045 C139.173519,16.9051736 138.984079,16.9600286 138.78154,16.9600286 C138.562878,16.9600286 138.387545,16.9051736 138.25655,16.7954637 C138.125554,16.6848079 138.053003,16.5353754 138.053003,16.3585154 C138.053003,15.9887172 138.299879,15.660533 138.809754,15.361668 C139.304514,15.0609114 140.003829,14.9114788 140.920798,14.9114788 C141.602983,14.9114788 142.171302,14.9918697 142.621725,15.1706213 C142.956268,15.2935721 143.204152,15.4978597 143.365377,15.7711888 C143.466143,15.9480488 143.525595,16.317847 143.525595,16.8777462 L143.525595,18.8156402 C143.525595,19.3632443 143.538694,19.6904826 143.568924,19.8143792 C143.597138,19.9363842 143.640468,20.0186667 143.699919,20.0735217 C143.771463,20.1132443 143.844015,20.1274309 143.931681,20.1274309 C144.019347,20.1274309 144.106006,20.1132443 144.163442,20.0858168 C144.295445,20.0328533 144.5131,19.8815293 144.862757,19.6223868 L144.862757,19.9779984 C144.222894,20.6059933 143.613261,20.9199908 143.029827,20.9199908 C142.752721,20.9199908 142.521967,20.851895 142.359734,20.7147575 C142.199516,20.565325 142.112858,20.3326642 142.099758,19.9912392 L142.099758,19.9912392 Z M134.926239,15.5252871 L134.926239,19.3083893 C134.926239,19.8399151 135.01189,20.1822859 135.173116,20.3184776 C135.376663,20.4972291 135.666868,20.5918067 136.017533,20.5918067 L136.729948,20.5918067 L136.729948,20.8235217 L132.043329,20.8235217 L132.043329,20.5918067 L132.392987,20.5918067 C132.624748,20.5918067 132.828295,20.5501926 133.018742,20.4679101 C133.207175,20.3875192 133.33817,20.2645684 133.412737,20.1274309 C133.484281,19.9912392 133.512495,19.7188559 133.512495,19.3083893 L133.512495,15.5252871 L132,15.5252871 L132,15.0741522 L133.512495,15.0741522 L133.512495,14.7062455 C133.512495,14.131214 133.644498,13.6535974 133.891374,13.2573174 C134.138251,12.862929 134.51713,12.5479858 135.04212,12.3020841 C135.551995,12.0561825 136.132406,11.9341774 136.774285,11.9341774 C137.383918,11.9341774 137.922007,12.0703691 138.430875,12.3559933 C138.766425,12.5479858 138.925635,12.7522733 138.925635,12.9839883 C138.925635,13.1069391 138.853083,13.2298899 138.706973,13.3395999 C138.562878,13.4493098 138.403668,13.503219 138.227328,13.503219 C138.096332,13.503219 137.950222,13.4625507 137.806127,13.3944549 C137.660016,13.326359 137.486699,13.1769265 137.281137,12.9584523 C137.06449,12.7257916 136.874043,12.5754132 136.699718,12.5073174 C136.524385,12.4250349 136.320838,12.3843666 136.103184,12.3843666 C135.842201,12.3843666 135.623539,12.4382758 135.433091,12.5347449 C135.260782,12.6444549 135.129786,12.7929416 135.04212,13.0123615 C134.968561,13.2175948 134.926239,13.7765482 134.926239,14.6646314 L134.926239,15.0741522 L136.933495,15.0741522 L136.933495,15.5252871 L134.926239,15.5252871 Z" id="Fill-45" fill="#000000"></path>
                    <path d="M171.550284,32.0739907 L170.866248,32.0739907 C170.339981,30.4526333 169.671391,29.3667149 168.842824,28.7871573 C168.030807,28.2086024 166.978274,27.917821 165.70398,27.917821 C164.731987,27.917821 163.950861,28.121368 163.361708,28.5264567 C162.772554,28.9315454 162.471357,29.3797499 162.471357,29.8730757 C162.471357,30.4807087 162.69422,31.0161477 163.122295,31.4513172 C163.552576,31.8995218 164.429687,32.3778072 165.734872,32.8851707 L168.777731,34.0583236 C171.58228,35.144242 173,36.5760901 173,38.3578786 C173,39.7335758 172.349062,40.8335319 171.024018,41.6727874 C169.718832,42.5130456 168.253671,42.9341774 166.627429,42.9341774 C165.464568,42.9341774 164.126284,42.774749 162.645676,42.455892 C162.214292,42.3546199 160.239413,41.8753318 160.08054,41.8753318 L160.08054,37.3010384 L160.766783,37.3010384 C161.162862,38.8351613 161.895443,40.0093169 162.995417,40.7894134 C164.094288,41.572518 165.321141,41.9625662 166.675974,41.9625662 C167.631418,41.9625662 168.41144,41.7319464 169.017143,41.2967769 C169.622846,40.8485724 169.925146,40.3131334 169.925146,39.6904599 C169.925146,38.9374362 169.593058,38.2997223 168.906815,37.7783211 C168.237121,37.2579225 166.898837,36.6061709 164.875414,35.8230663 C162.867436,35.0419671 161.561147,34.3330619 160.923449,33.6813104 C160.304506,33.0576342 160,32.2614946 160,31.3059265 C160,30.0756201 160.541713,29.0338202 161.608589,28.193562 C162.676568,27.3533038 164.0645,26.9341774 165.769074,26.9341774 C167.950267,26.9341774 169.671391,27.7734329 171.598829,28.5264567 C171.58228,29.2945209 171.550284,30.4235551 171.550284,32.0739907" id="Fill-47" fill="#08509D"></path>
                    <path d="M156.146444,26.9341774 L156.146444,36.3849279 C156.146444,38.1567504 156.188917,39.2287081 156.274849,39.6296616 C156.37461,40.0172155 156.516843,40.2996351 156.732169,40.463521 C156.930703,40.6129766 157.173685,40.6871891 157.444323,40.6871891 C157.829538,40.6871891 158.258214,40.5975157 158.742202,40.4037387 L159,41.029391 L153.894417,42.9341774 L153.050894,42.9341774 L153.050894,39.6750136 C151.582138,41.1190644 150.469952,42.0116753 149.700509,42.3837684 C148.929091,42.7558614 148.116188,42.9341774 147.260813,42.9341774 C146.304689,42.9341774 145.47697,42.6960791 144.778644,42.1899914 C144.07933,41.6859651 143.580526,41.029391 143.309888,40.2408836 C143.038262,39.453407 142.911832,38.3371279 142.911832,36.8920464 L142.911832,29.9552429 C142.911832,29.2265178 142.810096,28.7204301 142.639218,28.4369797 C142.467353,28.1555908 142.212518,27.930892 141.868788,27.7824671 C141.526045,27.6185812 140.898836,27.558799 140,27.558799 L140,26.9341774 L145.992566,26.9341774 L145.992566,37.3527821 C145.992566,38.811263 146.262217,39.764687 146.819297,40.2109925 C147.374402,40.6727589 148.045072,40.8953963 148.830318,40.8953963 C149.356779,40.8953963 149.955344,40.7459406 150.641817,40.4336299 C151.310512,40.1213191 152.12539,39.5410189 153.050894,38.6793298 L153.050894,29.8964914 C153.050894,28.9884195 152.867176,28.3926584 152.523446,28.0803476 C152.167862,27.7525759 151.427064,27.5886901 150.298087,27.558799 L150.298087,26.9341774 L156.146444,26.9341774 Z" id="Fill-49" fill="#08509D"></path>
                    <path d="M127.729141,33.0736773 C127.713728,35.3177082 128.351829,37.0694159 129.643444,38.3298032 C130.934032,39.6042282 132.461981,40.2409394 134.214961,40.2409394 C135.370941,40.2409394 136.379984,39.966201 137.24106,39.4297593 C138.102137,38.8943203 138.813194,37.95279 139.393753,36.6212113 L140,36.954106 C139.718455,38.4741912 138.93136,39.8498884 137.626387,41.0801949 C136.335799,42.3275471 134.687628,42.9341774 132.745582,42.9341774 C130.60933,42.9341774 128.782367,42.2403127 127.270859,40.8214996 C125.756268,39.4157216 125,37.5196258 125,35.1302043 C125,32.5522761 125.771681,30.5398677 127.328401,29.1060142 C128.887176,27.6591257 130.832306,26.9341774 133.17612,26.9341774 C135.163379,26.9341774 136.795109,27.4986946 138.071311,28.6136911 C139.348541,29.71465 140,31.205657 140,33.0736773 L127.729141,33.0736773 Z M127.729141,32.1341524 L135.949445,32.1341524 C135.87649,31.1625412 135.741882,30.4817114 135.548705,30.0906605 C135.222976,29.4830275 134.73284,28.9907043 134.094739,28.6427693 C133.456638,28.2958369 132.790793,28.1233734 132.092067,28.1233734 C131.023428,28.1233734 130.060625,28.4693031 129.212906,29.179211 C128.367242,29.8881161 127.879162,30.8727624 127.729141,32.1341524 L127.729141,32.1341524 Z" id="Fill-51" fill="#08509D"></path>
                    <path d="M119.456537,18.9341774 L119.456537,38.5864182 C119.456537,39.5071257 119.522245,40.119293 119.667351,40.4160418 C119.81337,40.7147559 120.037874,40.9554958 120.326261,41.1107485 C120.629249,41.2679665 121.18412,41.3396971 122,41.3396971 L122,41.9341774 L114.277436,41.9341774 L114.277436,41.3396971 C115.002053,41.3396971 115.489391,41.2679665 115.753137,41.1264703 C116.016883,40.983009 116.227698,40.7570082 116.372804,40.4455202 C116.530687,40.119293 116.596395,39.5071257 116.596395,38.5864182 L116.596395,25.135442 C116.596395,23.4738451 116.557153,22.4538938 116.491444,22.083449 C116.398357,21.7002303 116.281542,21.4457338 116.095368,21.3032551 C115.924709,21.1617589 115.687429,21.0900282 115.409993,21.0900282 C115.120694,21.0900282 114.752909,21.1902547 114.290212,21.3612292 L114,20.763801 L118.678987,18.9341774 L119.456537,18.9341774 Z" id="Fill-53" fill="#08509D"></path>
                    <path d="M92.1333056,26.9341774 L92.1333056,36.3849279 C92.1333056,38.1567504 92.1915878,39.2287081 92.2775294,39.6296616 C92.3763128,40.0172155 92.5195487,40.2996351 92.720079,40.463521 C92.9334512,40.6129766 93.1764584,40.6871891 93.446137,40.6871891 C93.8323802,40.6871891 94.2581366,40.5975157 94.7451388,40.4037387 L95,41.029391 L89.8938858,42.9341774 L89.0532391,42.9341774 L89.0532391,39.6750136 C87.5843298,41.1190644 86.4720287,42.0116753 85.6995425,42.3837684 C84.9300198,42.7558614 84.1180202,42.9341774 83.2625559,42.9341774 C82.3063325,42.9341774 81.4785276,42.6960791 80.7643236,42.1899914 C80.0659249,41.6859651 79.5808984,41.029391 79.3112197,40.2408836 C79.0385775,39.453407 78.8973173,38.3371279 78.8973173,36.8920464 L78.8973173,29.9552429 C78.8973173,29.2265178 78.8113757,28.7204301 78.6404804,28.4369797 C78.4676094,28.1555908 78.2107726,27.930892 77.8699698,27.7824671 C77.5271914,27.6185812 76.898929,27.558799 76,27.558799 L76,26.9341774 L81.9912135,26.9341774 L81.9912135,37.3527821 C81.9912135,38.811263 82.2638557,39.764687 82.8180306,40.2109925 C83.3761568,40.6727589 84.0449205,40.8953963 84.8174067,40.8953963 C85.3587397,40.8953963 85.9573672,40.7459406 86.6409483,40.4336299 C87.3116876,40.1213191 88.1246751,39.5410189 89.0532391,38.6793298 L89.0532391,29.8964914 C89.0532391,28.9884195 88.8665384,28.3926584 88.5099303,28.0803476 C88.1552979,27.7525759 87.4262764,27.5886901 86.3001456,27.558799 L86.3001456,26.9341774 L92.1333056,26.9341774 Z" id="Fill-55" fill="#08509D"></path>
                    <path d="M63.7509662,30.1935512 C65.676849,28.0206354 67.5074382,26.9341774 69.2427339,26.9341774 C70.1356345,26.9341774 70.9199005,27.142398 71.5536026,27.5732703 C72.213987,27.9897115 72.7228546,28.6906521 73.1078405,29.656507 C73.3708508,30.3430165 73.4947324,31.3830887 73.4947324,32.7839391 L73.4947324,39.4212281 C73.4947324,40.4035757 73.5776378,41.0601921 73.7548838,41.4168472 C73.8787654,41.699285 74.0988935,41.9229675 74.3742919,42.0703712 C74.6782784,42.2363292 75.2138282,42.3105465 76,42.3105465 L76,42.9341774 L67.865742,42.9341774 L67.865742,42.3105465 L68.2107046,42.3105465 C68.9682884,42.3105465 69.5028853,42.2043746 69.8059188,41.9827536 C70.1089523,41.7590711 70.3281275,41.4312783 70.4405739,41.0158679 C70.4939383,40.8509407 70.5206205,40.3149273 70.5206205,39.4212281 L70.5206205,33.0364838 C70.5206205,31.6222331 70.3166923,30.5800993 69.9298004,29.9410064 C69.5448144,29.3008828 68.8977712,28.9885519 67.9772354,28.9885519 C66.5583144,28.9885519 65.1565461,29.7162931 63.7509662,31.1913608 L63.7509662,39.4212281 C63.7509662,40.4798545 63.8071894,41.1199782 63.9434592,41.372523 C64.1092699,41.6838231 64.3427392,41.9229675 64.6448197,42.0858331 C64.9345121,42.2363292 65.5262851,42.3105465 66.4344327,42.3105465 L66.4344327,42.9341774 L58.2601514,42.9341774 L58.2601514,42.3105465 L58.6184552,42.3105465 C59.4579914,42.3105465 60.0221293,42.1157262 60.3242099,41.7147469 C60.6139023,41.3117061 60.765419,40.5540718 60.765419,39.4212281 L60.765419,33.6611456 C60.765419,31.8015914 60.7234899,30.6697785 60.6291492,30.2667377 C60.5309969,29.8513273 60.4071153,29.5822898 60.2146223,29.4348861 C60.0373763,29.28439 59.789613,29.2112036 59.4732384,29.2112036 C59.1416168,29.2112036 58.7423368,29.3008828 58.2744454,29.4637484 L58,28.8390866 L62.9676531,26.9341774 L63.7509662,26.9341774 L63.7509662,30.1935512 Z" id="Fill-57" fill="#08509D"></path>
                    <path d="M112,35.9579324 C111.508889,37.889599 110.571968,39.358945 109.175853,40.3950472 C107.776649,41.416611 106.231244,41.9341774 104.53655,41.9341774 C102.514448,41.9341774 100.760038,41.2479657 99.2589059,39.8484039 C97.7567438,38.4633806 97,36.5733906 97,34.2084802 C97,33.0744862 97.2069463,32.0393533 97.6074542,31.114712 C97.6527559,31.0168203 97.6970279,30.9334669 97.7413,30.8355751 C97.8010159,30.7376833 97.8463175,30.6252531 97.9070629,30.5273613 L97.9204475,30.5273613 C99.377308,28.0364515 102.291029,26.0485698 106.617338,25.9371089 C112.37168,25.7965712 112.029858,30.76676 107.97124,28.4696954 C104.149427,26.328676 101.207907,28.3020193 100.358501,31.114712 L100.345116,31.114712 C100.211271,31.6468169 100.150525,32.2225369 100.150525,32.8370259 C100.150525,34.5719398 100.670465,36.1120392 101.711373,37.4553859 C102.754341,38.7851635 104.1659,39.4568368 105.933695,39.4568368 C107.214497,39.4568368 108.34189,39.1069464 109.355,38.4071655 C110.067472,37.9167373 110.767589,37.0357112 111.434759,35.7350105 L112,35.9579324 Z" id="Fill-59" fill="#08509D"></path>
                    <path d="M26.0067607,21.9341774 C28.7680124,21.9341774 31,23.2698256 31,24.9260756 C31,26.5800108 28.7680124,27.9341774 26.0067607,27.9341774 C23.2319876,27.9341774 21,26.5800108 21,24.9260756 C21,23.2698256 23.2319876,21.9341774 26.0067607,21.9341774" id="Fill-61" fill="#08509D"></path>
                    <path d="M28.116134,41.2592596 C30.4021904,39.0985293 32.6311204,36.6355361 34.6445738,33.9850003 C43.7747682,21.9852656 45.7280887,11.9158233 40.7210139,7.94151597 C38.2174765,5.95236717 34.9031457,5.82368101 30.8381546,7.69511689 L26.2780685,5.21815778 C33.9630664,0.0747018022 41.5167739,-1.71094331 45.7591574,1.64487242 C52.443943,6.94694157 48.3188189,23.0227354 37.6822927,36.3342708 C35.685877,38.8261934 33.5150755,41.1445394 31.2851433,43.2045155 L28.116134,41.2592596 Z M13.4837697,17.1450701 C15.1354229,15.085094 16.8852933,13.1687676 18.6952967,11.4120519 L22.6299996,13.4002032 C20.6927147,15.1279894 18.6361659,17.1879654 16.4813999,19.5811289 C5.55322868,31.7225181 2.0504812,45.9268761 7.07258925,49.9031785 C9.88180275,52.1207702 15.2927709,50.6513539 21.1256723,46.8196986 L24.1794267,48.8228134 C16.652779,53.7777292 9.30352369,55.53644 5.17639519,52.2793834 C-1.49435939,46.9783118 2.8472435,30.4406444 13.4837697,17.1450701 L13.4837697,17.1450701 Z" id="Fill-63" fill="#08509D"></path>
                    <path d="M45.5143714,29.3867264 C49.4227687,36.029397 50.2246466,41.9980748 47.3514191,44.6531979 C42.6562928,48.9792007 28.0720124,42.7994746 17.426427,32.209132 C15.8963955,30.6928914 14.5239118,29.2048553 13.3130156,27.7576674 L10.777102,30.8475304 C11.9718395,32.1819 13.2403012,33.4870923 14.5824873,34.7660253 C26.9196917,46.4223074 43.311732,52.4892151 49.5540585,46.7315855 C53.6371723,42.9531411 52.3687105,35.0325101 47.5261356,26.7325759 L45.5143714,29.3867264 Z M37.1865565,13.8819746 C30.5655093,7.63222335 10.906372,-5.42942616 2.5068526,2.32294973 C-1.88327736,6.36787902 -0.248214001,14.9780639 5.39421896,23.7691473 L8.35530961,20.45462 C5.52550879,14.9625027 5.51237981,10.4692175 8.34016078,7.84327159 C14.9339401,1.76177536 29.2091844,12.1546858 34.4011922,16.5361252 C36.1948133,18.0387498 37.8298766,19.5987562 39.3154716,21.185022 L40.8768106,17.6740351 C39.710351,16.3814861 38.4843059,15.1181144 37.1865565,13.8819746 L37.1865565,13.8819746 Z" id="Fill-65" fill="#E8BB1F"></path>
                </g>
            </g>
        </g>
    </g>
</svg>