<?xml version="1.0" encoding="UTF-8"?>
<svg width="221px" height="52px" viewBox="0 0 221 52" version="1.1" xmlns="http://www.w3.org/2000/svg" xmlns:xlink="http://www.w3.org/1999/xlink">
    <!-- Generator: sketchtool 61.2 (101010) - https://sketch.com -->
    <title>8AE0637A-82AE-4E78-84EF-19E0096839E4</title>
    <desc>Created with sketchtool.</desc>
    <g id="Page-1" stroke="none" stroke-width="1" fill="none" fill-rule="evenodd">
        <g id="HOME" transform="translate(-990.000000, -3428.000000)">
            <g id="CLIENT" transform="translate(228.000000, 3013.000000)">
                <g id="PHOENIX" transform="translate(762.000000, 414.037652)">
                    <path d="M16.3884191,45.8232506 C11.3233839,45.8232506 7.80579044,42.0721992 7.80579044,36.9629658 C7.80579044,31.8549672 11.3233839,28.1039158 16.3884191,28.1039158 C20.4958111,28.1039158 23.2340724,30.5017242 24.0558002,34.3416748 L32,34.3416748 C30.9937264,26.3876678 24.8787749,20.9623485 16.4333087,20.9623485 C7.07633558,20.9623485 0,27.6976959 0,36.9629658 C0,46.2294705 7.07633558,52.9623485 16.4333087,52.9623485 C24.8787749,52.9623485 30.9937264,47.5407333 32,39.5854916 L24.0558002,39.5854916 C23.2340724,43.4291463 20.4958111,45.8232506 16.3884191,45.8232506" id="Fill-29" fill="#26A135"></path>
                    <path d="M16.3884191,10.1036403 C11.3233839,10.1036403 7.80579044,13.8557816 7.80579044,18.9635832 C7.80579044,24.0713847 11.3233839,27.8222914 16.3884191,27.8222914 C20.4958111,27.8222914 23.2340724,25.4258102 24.0558002,21.5835384 L32,21.5835384 C30.9937264,29.5384732 24.8787749,34.9623485 16.4333087,34.9623485 C7.07633558,34.9623485 0,28.2297302 0,18.9635832 C0,9.69743607 7.07633558,2.96234849 16.4333087,2.96234849 C24.8787749,2.96234849 30.9937264,8.38622379 32,16.3411586 L24.0558002,16.3411586 C23.2340724,12.4988868 20.4958111,10.1036403 16.3884191,10.1036403" id="Fill-31" fill="#12AF92"></path>
                    <path d="M19,27.9623485 C21.5736698,28.837322 23.2881992,30.9757214 23.9097317,33.9623485 L23.9372442,33.9623485 C26.5234197,32.6123166 28.6006139,30.5516077 30,27.9623485 C28.6006139,25.3743629 26.5234197,23.3162012 23.9372442,21.9623485 L23.9097317,21.9623485 C23.2881992,24.9515228 21.5736698,27.0899223 19,27.9623485" id="Fill-33" fill="#26A135"></path>
                    <path d="M8.28937203,33.9623485 C9.1369606,31.055673 11.1923629,28.8637102 14,27.9603558 C11.1923629,27.0596584 9.1369606,24.869024 8.28937203,21.9623485 C5.67509105,23.3731755 3.51638892,25.4296351 2,27.9603558 C3.51638892,30.4950619 5.67509105,32.5515215 8.28937203,33.9623485" id="Fill-35" fill="#12AF92"></path>
                    <path d="M214.40097,8.1156797 C212.584635,8.1156797 211.053689,8.74566057 209.74525,9.817943 L209.74525,8.58906191 L206.049697,8.58906191 L206.049697,23.4946245 L209.74525,23.4946245 L209.74525,13.5691384 C210.896483,12.1812678 212.328268,11.425769 213.635497,11.425769 C215.933125,11.425769 217.334679,12.87341 217.334679,15.4901617 L217.334679,23.4946245 L221,23.4946245 L221,15.2690109 C221,10.9523867 218.355309,8.1156797 214.40097,8.1156797 L214.40097,8.1156797 Z M194.764715,20.6579175 C192.149047,20.6579175 190.394385,18.6089854 190.394385,16.0579813 C190.394385,13.5368624 192.149047,11.5524824 194.764715,11.5524824 C197.345314,11.5524824 199.099977,13.5368624 199.099977,16.0579813 C199.099977,18.6089854 197.345314,20.6579175 194.764715,20.6579175 L194.764715,20.6579175 Z M194.764715,8.24119771 C190.171878,8.24119771 186.729063,11.5524824 186.729063,16.0579813 C186.729063,20.5945608 190.171878,23.9680068 194.764715,23.9680068 C199.321275,23.9680068 202.764089,20.5945608 202.764089,16.0579813 C202.764089,11.5524824 199.321275,8.24119771 194.764715,8.24119771 L194.764715,8.24119771 Z M179.398421,23.49582 L183.062533,23.49582 L183.062533,8.58906191 L179.398421,8.58906191 L179.398421,23.49582 Z M181.214756,5.37460542 C182.488126,5.37460542 183.508756,4.43023182 183.508756,3.1989599 C183.508756,1.90672209 182.488126,0.962348488 181.214756,0.962348488 C179.937759,0.962348488 178.917128,1.90672209 178.917128,3.1989599 C178.917128,4.43023182 179.937759,5.37460542 181.214756,5.37460542 L181.214756,5.37460542 Z M168.523384,8.1156797 C166.708258,8.1156797 165.177312,8.74566057 163.870083,9.817943 L163.870083,8.58906191 L160.170902,8.58906191 L160.170902,23.4946245 L163.870083,23.4946245 L163.870083,13.5691384 C165.017688,12.1812678 166.45431,11.425769 167.761539,11.425769 C170.05433,11.425769 171.457092,12.87341 171.457092,15.4901617 L171.457092,23.4946245 L175.124832,23.4946245 L175.124832,15.2690109 C175.124832,10.9523867 172.477723,8.1156797 168.523384,8.1156797 L168.523384,8.1156797 Z M148.089006,20.691389 C145.507197,20.691389 143.627979,18.5157435 143.627979,16.0579813 C143.627979,13.5691384 145.507197,11.3934929 148.089006,11.3934929 C149.651393,11.3934929 151.118247,11.9613125 152.170319,13.5045863 L152.170319,18.5791002 C151.118247,20.122374 149.651393,20.691389 148.089006,20.691389 L148.089006,20.691389 Z M155.83564,8.58906191 L152.170319,8.58906191 L152.170319,9.63026369 C150.9296,8.74566057 149.366003,8.24119771 147.548459,8.24119771 C143.338962,8.24119771 139.95903,11.709081 139.95903,16.0579813 C139.95903,20.3758008 143.338962,23.8400979 147.548459,23.8400979 C149.366003,23.8400979 150.9296,23.3356351 152.170319,22.4546182 L152.170319,23.4946245 L155.83564,23.4946245 L155.83564,8.58906191 Z M129.152923,20.691389 C127.590536,20.691389 126.155123,20.122374 125.10426,18.6089854 L125.10426,13.4723102 C126.155123,11.9613125 127.590536,11.3934929 129.152923,11.3934929 C131.767382,11.3934929 133.615158,13.5691384 133.615158,16.0579813 C133.615158,18.5157435 131.767382,20.691389 129.152923,20.691389 L129.152923,20.691389 Z M129.694679,8.24119771 C127.877134,8.24119771 126.314747,8.74566057 125.10426,9.63026369 L125.10426,8.58906191 L121.407498,8.58906191 L121.407498,30.9623485 L125.10426,30.9623485 L125.10426,22.4546182 C126.314747,23.3356351 127.877134,23.8400979 129.694679,23.8400979 C133.904176,23.8400979 137.284107,20.3758008 137.284107,16.0579813 C137.284107,11.709081 133.904176,8.24119771 129.694679,8.24119771 L129.694679,8.24119771 Z M110.727155,8.1156797 C108.238461,8.1156797 106.647051,8.87237399 105.050804,10.3845672 C103.872968,8.9357307 102.118305,8.1156797 100.142345,8.1156797 C98.2304767,8.1156797 97.1143132,8.68349927 96.0924733,9.63026369 L96.0924733,8.58906191 L92.3945014,8.58906191 L92.3945014,23.4946245 L96.0924733,23.4946245 L96.0924733,13.4113443 C97.1143132,12.0246692 98.2921499,11.425769 99.3756629,11.425769 C101.670872,11.425769 103.011962,12.87341 103.011962,15.4901617 L103.011962,23.4946245 L106.676074,23.4946245 L106.676074,15.2690109 C106.676074,14.6402254 106.613191,14.0413252 106.487426,13.4723102 C107.53708,11.9613125 108.815286,11.425769 109.961682,11.425769 C112.289542,11.425769 113.595562,12.87341 113.595562,15.4901617 L113.595562,23.4946245 L117.292325,23.4946245 L117.292325,15.2690109 C117.292325,10.9523867 114.423917,8.1156797 110.727155,8.1156797 L110.727155,8.1156797 Z M81.1083105,20.6579175 C78.4950609,20.6579175 76.7403986,18.6089854 76.7403986,16.0579813 C76.7403986,13.5368624 78.4950609,11.5524824 81.1083105,11.5524824 C83.6913282,11.5524824 85.4435719,13.5368624 85.4435719,16.0579813 C85.4435719,18.6089854 83.6913282,20.6579175 81.1083105,20.6579175 L81.1083105,20.6579175 Z M81.1083105,8.24119771 C76.5178915,8.24119771 73.0750772,11.5524824 73.0750772,16.0579813 C73.0750772,20.5945608 76.5178915,23.9680068 81.1083105,23.9680068 C85.6672883,23.9680068 89.1125211,20.5945608 89.1125211,16.0579813 C89.1125211,11.5524824 85.6672883,8.24119771 81.1083105,8.24119771 L81.1083105,8.24119771 Z M63.0017921,20.5646756 C60.3885425,20.5646756 58.6665307,18.5791002 58.6665307,16.0579813 C58.6665307,13.5368624 60.3885425,11.5524824 63.0017921,11.5524824 C64.88101,11.5524824 66.2849816,12.5900979 66.6356722,14.1668432 L70.3965266,14.1668432 C69.9188618,10.6702701 66.8267382,8.24119771 63.0017921,8.24119771 C58.4754648,8.24119771 55,11.6146437 55,16.0579813 C55,20.4690428 58.4754648,23.8400979 63.0017921,23.8400979 C66.8267382,23.8400979 69.9188618,21.4456924 70.3965266,17.9156478 L66.6356722,17.9156478 C66.2849816,19.5246692 64.88101,20.5646756 63.0017921,20.5646756 L63.0017921,20.5646756 Z" id="Fill-37" fill="#606062"></path>
                    <path d="M177.371307,42.6525593 C177.721195,46.5972043 180.913774,47.9623485 184.360598,47.9623485 C188.15852,47.9623485 191,46.2933274 191,43.2280839 C191,40.4356389 188.797762,39.4641535 186.498669,39.0716458 L183.692299,38.6469087 C182.062715,38.3729591 181.551806,37.7053506 181.551806,37.0078149 C181.551806,36.1571897 182.477981,35.460805 184.263743,35.460805 C185.98776,35.460805 187.392155,36.0984862 187.521699,37.5534122 L190.935834,37.5234849 C190.584735,33.6087672 186.849768,32.7581419 184.263743,32.7581419 C180.498509,32.7581419 177.912483,34.4893197 177.912483,37.3726975 C177.912483,39.9832767 180.083244,41.1032474 182.383547,41.5003593 L185.669349,42.0137271 C186.849768,42.2266712 187.4878,42.7734195 187.4878,43.5319608 C187.4878,44.5022951 186.243214,45.110049 184.457452,45.110049 C182.412604,45.110049 181.073585,44.381435 180.753964,42.6813356 L177.371307,42.6525593 Z M166.839548,44.8073231 C165.275342,44.8073231 163.837047,44.2594238 162.78375,42.8044978 L162.78375,37.8285129 C163.837047,36.4012121 165.275342,35.8544638 166.839548,35.8544638 C169.455841,35.8544638 171.30698,37.949373 171.30698,40.3170809 C171.30698,42.7124139 169.455841,44.8073231 166.839548,44.8073231 L166.839548,44.8073231 Z M167.380725,32.8202986 C165.561064,32.8202986 163.996858,33.3048902 162.78375,34.1555154 L162.78375,25.9623485 L159.082683,25.9623485 L159.082683,47.5076841 L162.78375,47.5076841 L162.78375,46.5074225 C163.996858,47.3557457 165.561064,47.8414883 167.380725,47.8414883 C171.595123,47.8414883 174.97657,44.5022951 174.97657,40.3170809 C174.97657,36.1571897 171.595123,32.8202986 167.380725,32.8202986 L167.380725,32.8202986 Z M146.985507,44.8073231 C144.401903,44.8073231 142.516865,42.7124139 142.516865,40.3470081 C142.516865,37.949373 144.401903,35.8544638 146.985507,35.8544638 C148.548503,35.8544638 150.018276,36.4012121 151.070362,37.8872164 L151.070362,42.7734195 C150.018276,44.2594238 148.548503,44.8073231 146.985507,44.8073231 L146.985507,44.8073231 Z M154.742373,33.1552538 L151.070362,33.1552538 L151.070362,34.1555154 C149.826988,33.3048902 148.261571,32.8202986 146.44312,32.8202986 C142.231143,32.8202986 138.847276,36.1571897 138.847276,40.3470081 C138.847276,44.5022951 142.231143,47.8414883 146.44312,47.8414883 C148.261571,47.8414883 149.826988,47.3557457 151.070362,46.5074225 L151.070362,47.5076841 L154.742373,47.5076841 L154.742373,33.1552538 Z M131.664275,47.5088352 L135.368974,47.5088352 L135.368974,25.9623485 L131.664275,25.9623485 L131.664275,47.5088352 Z M112.098377,35.7946093 C114.300615,35.7946093 115.643266,37.0676695 115.930199,39.1027241 L107.949356,39.1027241 C108.365832,37.2518373 109.739961,35.7946093 112.098377,35.7946093 L112.098377,35.7946093 Z M119.662744,40.1018347 C119.633687,35.7946093 116.471375,32.8202986 112.289666,32.8202986 C107.472346,32.8202986 104.279766,36.0674079 104.279766,40.3470081 C104.279766,44.594379 107.472346,47.8414883 112.289666,47.8414883 C115.73891,47.8414883 118.516224,46.1736183 119.378233,43.5319608 L115.450767,43.5319608 C114.90838,44.4113622 113.855083,44.8683287 112.38652,44.8683287 C109.834394,44.8683287 108.429998,43.5008825 107.983255,41.7121523 L119.535622,41.7121523 L119.569521,41.7121523 C119.662744,41.165404 119.662744,40.6175047 119.662744,40.1018347 L119.662744,40.1018347 Z M97.0362316,33.1552538 L93.3315321,33.1552538 L93.3315321,47.5076841 L97.0362316,47.5076841 L97.0362316,38.5859031 C98.3437725,37.0676695 100.129535,36.2803519 102.525482,36.188268 L102.525482,32.8813042 C100.225179,32.8813042 98.4067282,33.6398455 97.0362316,34.9750623 L97.0362316,33.1552538 Z M81.2355675,44.8073231 C78.649542,44.8073231 76.7657144,42.7124139 76.7657144,40.3470081 C76.7657144,37.949373 78.649542,35.8544638 81.2355675,35.8544638 C82.8009846,35.8544638 84.2683361,36.4012121 85.321633,37.8872164 L85.321633,42.7734195 C84.2683361,44.2594238 82.8009846,44.8073231 81.2355675,44.8073231 L81.2355675,44.8073231 Z M88.9912225,33.1552538 L85.321633,33.1552538 L85.321633,34.1555154 C84.075837,33.3048902 82.5116306,32.8202986 80.6931801,32.8202986 C76.4787818,32.8202986 73.0961249,36.1571897 73.0961249,40.3470081 C73.0961249,44.5022951 76.4787818,47.8414883 80.6931801,47.8414883 C82.5116306,47.8414883 84.075837,47.3557457 85.321633,46.5074225 L85.321633,47.5076841 L88.9912225,47.5076841 L88.9912225,33.1552538 Z M63.0098991,44.6853119 C60.3948172,44.6853119 58.6695895,42.7734195 58.6695895,40.3470081 C58.6695895,37.9182947 60.3948172,36.0064023 63.0098991,36.0064023 C64.8949374,36.0064023 66.2969119,37.0078149 66.6480108,38.5260486 L70.4144552,38.5260486 C69.9386556,35.155777 66.8405099,32.8202986 63.0098991,32.8202986 C58.4795118,32.8202986 55,36.0674079 55,40.3470081 C55,44.594379 58.4795118,47.8414883 63.0098991,47.8414883 C66.8405099,47.8414883 69.9386556,45.5359371 70.4144552,42.1368894 L66.6480108,42.1368894 C66.2969119,43.6838993 64.8949374,44.6853119 63.0098991,44.6853119 L63.0098991,44.6853119 Z" id="Fill-39" fill="#606062"></path>
                    <path d="M54,28.9623485 C46.665443,34.2983617 39.334557,39.6297808 32,44.9623485 C34.8082763,40.5405554 35.5791757,35.583553 33.3154235,28.9623485 L54,28.9623485 Z" id="Fill-41" fill="#F4524D"></path>
                    <path d="M54,26.9623485 C46.665443,21.6286323 39.334557,16.2960647 32,10.9623485 C34.8082763,15.3852901 35.5791757,20.3422925 33.3154235,26.9623485 L54,26.9623485 Z" id="Fill-43" fill="#F4524D"></path>
                </g>
            </g>
        </g>
    </g>
</svg>