<?xml version="1.0" encoding="UTF-8"?>
<svg width="15px" height="22px" viewBox="0 0 15 22" version="1.1" xmlns="http://www.w3.org/2000/svg" xmlns:xlink="http://www.w3.org/1999/xlink">
    <!-- Generator: sketchtool 61.2 (101010) - https://sketch.com -->
    <title>66338367-5B04-4CFC-A213-0870599CD266</title>
    <desc>Created with sketchtool.</desc>
    <g id="Page-1" stroke="none" stroke-width="1" fill="none" fill-rule="evenodd">
        <g id="HOME" transform="translate(-228.000000, -6903.000000)" fill="#EF4C4A">
            <g id="CONTACT" transform="translate(0.000000, 6072.000000)">
                <g id="Group-5" transform="translate(217.000000, 707.000000)">
                    <g id="LOC" transform="translate(11.000000, 124.000000)">
                        <path d="M7.5,6.05737682e-13 C3.32142857,6.05737682e-13 0,3.35833333 0,7.58333333 C0,13.2166667 7.5,21.6666667 7.5,21.6666667 C7.5,21.6666667 15,13.2166667 15,7.58333333 C15,3.35833333 11.6785714,6.05737682e-13 7.5,6.05737682e-13 L7.5,6.05737682e-13 Z M7.5,10.2916667 C6,10.2916667 4.82142857,9.1 4.82142857,7.58333333 C4.82142857,6.06666667 6,4.875 7.5,4.875 C9,4.875 10.1785714,6.06666667 10.1785714,7.58333333 C10.1785714,9.1 9,10.2916667 7.5,10.2916667 L7.5,10.2916667 Z" id="ICON_LOC"></path>
                    </g>
                </g>
            </g>
        </g>
    </g>
</svg>