<?xml version="1.0" encoding="UTF-8"?>
<svg width="98px" height="95px" viewBox="0 0 98 95" version="1.1" xmlns="http://www.w3.org/2000/svg" xmlns:xlink="http://www.w3.org/1999/xlink">
    <!-- Generator: sketchtool 61.2 (101010) - https://sketch.com -->
    <title>E17CDC72-918C-4A8F-A4F3-6F8838620A41</title>
    <desc>Created with sketchtool.</desc>
    <g id="Page-1" stroke="none" stroke-width="1" fill="none" fill-rule="evenodd">
        <g id="HOME" transform="translate(-799.000000, -2567.000000)">
            <g id="SERVICES" transform="translate(0.000000, 2163.000000)">
                <g id="ADS" transform="translate(228.000000, 368.000000)">
                    <g id="DIGITAL-MARKETING" transform="translate(498.000000, 0.000000)">
                        <g id="ICON-SOCMED" transform="translate(74.000000, 37.000000)">
                            <path d="M85.9516134,0 L50.042493,0 C44.4921173,0 39.9941064,4.49011964 39.9941064,10.0294915 L39.9941064,28.815495 C38.876676,28.2151132 37.5979962,27.8738584 36.2401061,27.8738584 L7.9252689,27.8738584 C3.54748784,27.8738584 0,31.4138455 0,35.7821896 L0,64.0426147 C0,68.4109587 3.54748784,71.9509458 7.9252689,71.9509458 L23.4801827,71.9509458 L23.4801827,79.2263273 L29.76,74.9916501 C32.96,72.427833 34.56,71.1459245 34.56,71.1459245 C34.56,71.1459245 34.3838986,71.1459245 33.6,73.0687873 C33.0774009,74.3506958 33.1361014,77.4029985 33.7761014,82.2256953 C33.7761014,85.325308 36.2952704,87.8386988 39.4000295,87.8386988 L50.4399587,87.8386988 L50.4399587,93 L57.1176661,87.8386988 L59.4953882,87.8386988 C62.6001473,87.8386988 65.1179019,85.325308 65.1179019,82.2256953 L65.1179019,62.1709603 C65.1179019,59.0713476 62.6001473,56.5579568 59.4953882,56.5579568 L44.165375,56.5579568 L44.165375,54.0003792 C45.8188891,55.1926469 47.8486518,55.8949803 50.042493,55.8949803 L68.8690732,55.8949803 L68.8690732,65.033811 L80.8029468,55.8949803 L85.9516134,55.8949803 C91.5019891,55.8949803 96,51.4048607 96,45.8669049 L96,10.0294915 C96,4.49011964 91.5019891,0 85.9516134,0 Z" id="Stroke-1" stroke="#FFFFFF" stroke-width="2" stroke-linejoin="round"></path>
                            <path d="M84,26.5902588 C84,25.2233901 82.8856397,24.1161979 81.5099217,24.1161979 L71.3873368,24.0862352 L72.6266319,21.1698681 C73.914752,18.1393575 73.7065274,14.6850891 72.0622715,11.8300742 C71.5984334,11.0210819 70.5544386,10.757125 69.7560052,11.2450886 C69.2663185,11.5447154 68.967624,12.074056 68.967624,12.6462004 C68.967624,15.2615139 68.0069191,17.7869394 66.2650131,19.7473544 L59.8100522,27.0054559 L59.4453003,27.0054559 L59.4453003,25.2405116 C59.4453003,24.7924983 59.0805483,24.4300926 58.6310705,24.4300926 L51.8156658,24.4300926 C51.364752,24.4300926 51,24.7924983 51,25.2405116 L51,42.5018662 C51,42.9498796 51.364752,43.3122853 51.8156658,43.3122853 L58.6310705,43.3122853 C59.0805483,43.3122853 59.4453003,42.9498796 59.4453003,42.5018662 L59.4453003,41.0807793 L59.6377285,41.0807793 L59.6377285,41.0807793 L60.6903394,41.9268682 C62.3575718,43.2680546 64.4369452,44 66.5809399,44 L81.5099217,44 C82.9244125,44 84.0646214,42.8257485 83.9971279,41.4060884 C83.9339426,40.0748895 84,27.9571275 84,26.5902588" id="Fill-3" fill="#FFFFFF"></path>
                            <path d="M49.5007226,81 C54.4419501,78.3422743 57,76.0805673 57,72.5765349 C57,67.7421729 51.1670681,66.5350492 49.5007226,70.1593539 C47.5959148,66.4147768 42,67.7436397 42,72.5765349 C42,76.0805673 44.5594951,78.3422743 49.5007226,81" id="Fill-5" fill="#FFFFFF"></path>
                            <path d="M20.4379372,47.5226663 L24.1908714,47.5226663 L23.5634855,51.476149 L19.8105513,51.476149 L20.4379372,47.5226663 Z M11.5563723,51.476149 C10.6956728,51.476149 10,52.2022384 10,53.095773 C10,53.9907893 10.6956728,54.7168787 11.5563723,54.7168787 L16.1415531,54.7168787 L15.2851215,60.1136494 C15.1442798,60.9968112 15.7190279,61.8310731 16.5655009,61.976291 C16.6522822,61.9925909 16.7362181,62 16.8215768,62 C17.5684647,62 18.2285714,61.4369103 18.3551867,60.6426574 L19.2955542,54.7168787 L23.0484884,54.7168787 L22.1906343,60.1151312 C22.0512152,60.9968112 22.6245406,61.8310731 23.4738589,61.9777728 C23.5592175,61.9925909 23.6445762,62 23.7285122,62 C24.4768228,62 25.1355068,61.4369103 25.2621221,60.6426574 L26.2024896,54.7168787 L32.4436277,54.7168787 C33.3043272,54.7168787 34,53.9922711 34,53.0972548 C34,52.2022384 33.3043272,51.476149 32.4436277,51.476149 L26.716064,51.476149 L27.3434499,47.5226663 L32.4436277,47.5226663 C33.3043272,47.5226663 34,46.7980587 34,45.9030424 C34,45.0080261 33.3043272,44.2819367 32.4436277,44.2819367 L27.8584469,44.2819367 L28.7148785,38.885166 C28.8557202,38.0020042 28.2823948,37.1677423 27.4344991,37.0225244 C26.5851808,36.8758247 25.785655,37.4729962 25.6448133,38.356158 L24.7044458,44.2819367 L20.9515116,44.2819367 L21.8079431,38.885166 C21.9487848,38.0020042 21.3740368,37.1677423 20.5261411,37.0225244 C19.6782454,36.8743429 18.8787196,37.4729962 18.7393005,38.356158 L17.798933,44.2819367 L11.5563723,44.2819367 C10.6956728,44.2819367 10,45.0080261 10,45.9015606 C10,46.7965769 10.6956728,47.5226663 11.5563723,47.5226663 L17.283936,47.5226663 L16.6565501,51.476149 L11.5563723,51.476149 Z" id="Fill-7" fill="#FFFFFF"></path>
                            <path d="M45,54 L45,34.6732261 C45,34.6732261 45,30.9806589 40,28" id="Stroke-9" stroke="#FFFFFF" stroke-width="4" stroke-linejoin="round"></path>
                            <path d="M35,71 C35,71 45,69 45,56" id="Stroke-11" stroke="#FFFFFF" stroke-width="4" stroke-linejoin="round"></path>
                        </g>
                    </g>
                </g>
            </g>
        </g>
    </g>
</svg>