<?xml version="1.0" encoding="UTF-8"?>
<svg width="71px" height="71px" viewBox="0 0 71 71" version="1.1" xmlns="http://www.w3.org/2000/svg" xmlns:xlink="http://www.w3.org/1999/xlink">
    <!-- Generator: sketchtool 61.2 (101010) - https://sketch.com -->
    <title>32E63D12-DDD3-4FC6-BEA7-2CB3C0EB1447</title>
    <desc>Created with sketchtool.</desc>
    <g id="Page-1" stroke="none" stroke-width="1" fill="none" fill-rule="evenodd">
        <g id="HOME" transform="translate(-553.000000, -2576.000000)">
            <g id="SERVICES" transform="translate(0.000000, 2163.000000)">
                <g id="ADS" transform="translate(228.000000, 368.000000)">
                    <g id="CAMPAIGN" transform="translate(249.000000, 0.000000)">
                        <g id="ICON-CAMPAIGN" transform="translate(77.000000, 46.000000)">
                            <path d="M17.6967409,45.3543916 C18.556249,44.8586084 18.8504759,43.7581947 18.3547139,42.89865 C17.8582496,42.0398076 16.758585,41.7448658 15.8990769,42.2406488 C15.0395688,42.7371342 14.7446395,43.837548 15.2411038,44.6963905 C15.7368657,45.5559352 16.8372328,45.850877 17.6967409,45.3543916 L17.6967409,45.3543916 Z" id="Path" fill="#FFFFFF" fill-rule="nonzero"></path>
                            <path d="M29,63 C30,65 29.355116,66.4316281 27.8454112,67.30369 C26.3307827,68.1794445 24,69 22.5415519,66.9993845 L14,53 L20.4578327,49 C27,60 28.8670493,62.7340986 29,63 Z" id="Path" stroke="#FFFFFF" stroke-width="2" fill-rule="nonzero"></path>
                            <path d="M25,54 L21,48 L25,46 C25.858893,47.9492824 26.1922263,49.2826158 26,50 C25.8077737,50.7173842 25.4744404,52.0507176 25,54 Z" id="Path" stroke="#FFFFFF" stroke-width="2" fill-rule="nonzero"></path>
                            <polygon id="Path" stroke="#FFFFFF" stroke-width="2" stroke-linejoin="round" fill-rule="nonzero" points="49.5173109 17 51.6947818 20.7713446 49.7530292 23.711861 46 17.2110919"></polygon>
                            <polygon id="Path" stroke="#FFFFFF" stroke-width="2" fill-rule="nonzero" points="34.6320979 8 52.8451828 39.5450078 25.3578445 44.9361596 17 30.4606709"></polygon>
                            <path d="M1.20720792,49.2076417 C0.515439344,48.0106337 0.149860656,46.651768 0.149860656,45.2769013 C0.149860656,42.4668557 1.66018094,39.8500546 4.0906027,38.4468781 L16.3707258,31.3571442 L24.2485174,45.0011894 L11.9683943,52.0915387 C8.20613339,54.2627697 3.37913964,52.9691394 1.20720792,49.2076417 Z" id="Path" stroke="#FFFFFF" stroke-width="2" fill-rule="nonzero"></path>
                            <path d="M38.1392081,3.57760177 C38.41078,3.58109477 39.0875347,3.66709396 39.4958247,4.38670474 L58,37 C58.6028027,38.0617106 55.6549065,40.8191488 54.4461939,40.8495015 C54.2293093,40.8545603 54.1292566,40.8943982 53.5736839,41 L34,6.50231075 C34.4107757,5.96481591 34.4635988,5.91296354 34.5450081,5.7770089 C34.9719415,5.0662509 37.8645291,3.57034492 38.1392081,3.57760177 Z" id="Path" fill="#FFFFFF" fill-rule="nonzero"></path>
                            <path d="M4,47 C6.66666667,49.6666667 10,49.6666667 14,47" id="Path-2" stroke="#FFFFFF" stroke-width="2" stroke-linecap="round" stroke-linejoin="round"></path>
                            <line x1="51" y1="10" x2="54" y2="0" id="Path-3" stroke="#FFFFFF" stroke-width="2" stroke-linecap="round" stroke-linejoin="round"></line>
                            <line x1="58" y1="14.0331231" x2="66.520647" y2="8" id="Path-3-Copy" stroke="#FFFFFF" stroke-width="2" stroke-linecap="round" stroke-linejoin="round"></line>
                            <line x1="58" y1="23" x2="68.3461868" y2="24.3987204" id="Path-3-Copy-2" stroke="#FFFFFF" stroke-width="2" stroke-linecap="round" stroke-linejoin="round"></line>
                        </g>
                    </g>
                </g>
            </g>
        </g>
    </g>
</svg>