<?xml version="1.0" encoding="UTF-8"?>
<svg width="19px" height="15px" viewBox="0 0 19 15" version="1.1" xmlns="http://www.w3.org/2000/svg" xmlns:xlink="http://www.w3.org/1999/xlink">
    <!-- Generator: sketchtool 61.2 (101010) - https://sketch.com -->
    <title>D0F5704C-BA83-4A77-A0A4-31975B61BAC4</title>
    <desc>Created with sketchtool.</desc>
    <g id="Page-1" stroke="none" stroke-width="1" fill="none" fill-rule="evenodd">
        <g id="HOME" transform="translate(-228.000000, -6977.000000)" fill="#EF4C4A">
            <g id="CONTACT" transform="translate(0.000000, 6072.000000)">
                <g id="Group-5" transform="translate(217.000000, 707.000000)">
                    <g id="MAIL" transform="translate(11.000000, 191.326316)">
                        <path d="M16.875,6.67368421 L1.875,6.67368421 C0.84375,6.67368421 0,7.51743421 0,8.54868421 L0,19.7986842 C0,20.8299342 0.84375,21.6736842 1.875,21.6736842 L16.875,21.6736842 C17.90625,21.6736842 18.75,20.8299342 18.75,19.7986842 L18.75,8.54868421 C18.75,7.51743421 17.90625,6.67368421 16.875,6.67368421 L16.875,6.67368421 Z M16.875,10.4236842 L9.375,15.1111842 L1.875,10.4236842 L1.875,8.54868421 L9.375,13.2361842 L16.875,8.54868421 L16.875,10.4236842 L16.875,10.4236842 Z" id="MAIL_ICON"></path>
                    </g>
                </g>
            </g>
        </g>
    </g>
</svg>